<?xml version="1.0" standalone="no"?><!DOCTYPE svg PUBLIC "-//W3C//DTD SVG 1.1//EN" "http://www.w3.org/Graphics/SVG/1.1/DTD/svg11.dtd"><svg class="icon" width="200px" height="200.00px" viewBox="0 0 1024 1024" version="1.1" xmlns="http://www.w3.org/2000/svg"><path fill="#1296db" d="M927 192H97c-16.6 0-30 13.4-30 30v580c0 16.6 13.4 30 30 30h830c16.6 0 30-13.4 30-30V222c0-16.6-13.4-30-30-30z m-20 565c0 13.8-11.2 25-25 25H142c-13.8 0-25-11.2-25-25V267c0-13.8 11.2-25 25-25h740c13.8 0 25 11.2 25 25v490zM569.9 722.3c-12.8-90.5-80.6-163.2-168.6-183.4 38.9-18.4 65.8-58.1 65.8-103.9 0-63.5-51.5-115-115-115s-115 51.5-115 115c0 45.9 26.9 85.5 65.8 103.9C215 559 147.1 631.8 134.3 722.3c-2.1 15 9.6 28.4 24.8 28.4 12.4 0 23-9.1 24.7-21.4 11.7-82.5 82.6-145.9 168.3-145.9s156.6 63.4 168.3 145.9c1.7 12.3 12.3 21.4 24.7 21.4 15.2 0.1 26.9-13.4 24.8-28.4zM352.1 370c35.9 0 65 29.1 65 65s-29.1 65-65 65-65-29.1-65-65 29.1-65 65-65z m488.5 68.7h-250c-13.8 0-25-11.2-25-25s11.2-25 25-25h250c13.8 0 25 11.2 25 25s-11.2 25-25 25z m0 107.3h-177c-13.8 0-25-11.2-25-25s11.2-25 25-25h177c13.8 0 25 11.2 25 25s-11.2 25-25 25z m0 107.3H729.1c-13.8 0-25-11.2-25-25s11.2-25 25-25h111.5c13.8 0 25 11.2 25 25s-11.2 25-25 25z" /></svg>