<?xml version="1.0" standalone="no"?><!DOCTYPE svg PUBLIC "-//W3C//DTD SVG 1.1//EN" "http://www.w3.org/Graphics/SVG/1.1/DTD/svg11.dtd"><svg class="icon" width="200px" height="200.00px" viewBox="0 0 1024 1024" version="1.1" xmlns="http://www.w3.org/2000/svg"><path fill="#1296db" d="M791.551904 168.82608 580.084655 168.82608c-10.29753-38.975686-45.851281-67.793012-88.020706-67.793012L300.227806 101.033068c-42.61354 0-78.478376 29.433356-88.331791 69.037353-83.544765 10.17064-148.480706 81.538061-148.480706 167.787424l0 416.077324c0 93.200682 75.823919 169.031764 169.031764 169.031764L791.551904 922.966932c93.200682 0 169.031764-75.831083 169.031764-169.031764L960.583668 337.856821C960.583668 244.649999 884.752586 168.82608 791.551904 168.82608zM882.56885 753.935168c0 50.180889-40.836057 91.016947-91.016947 91.016947L232.448096 844.952114c-50.188053 0-91.016947-40.836057-91.016947-91.016947L141.43115 337.856821c0-50.188053 40.829917-91.016947 91.016947-91.016947l15.770172 0c21.541619 0 39.007409-17.46579 39.007409-39.007409l0-15.783475c0-7.16826 5.834892-13.002129 13.002129-13.002129l191.836143 0c7.1744 0 13.002129 5.834892 13.002129 13.002129l0 15.783475c0 21.541619 17.45965 39.007409 39.007409 39.007409L791.551904 246.839875c50.180889 0 91.016947 40.828894 91.016947 91.016947L882.56885 753.935168zM518.501064 324.854693c-121.884978 0-221.041302 99.156324-221.041302 221.041302s99.156324 221.041302 221.041302 221.041302 221.041302-99.156324 221.041302-221.041302S640.386042 324.854693 518.501064 324.854693zM518.501064 688.922479c-78.865185 0-143.026484-64.161299-143.026484-143.026484s64.161299-143.026484 143.026484-143.026484 143.026484 64.161299 143.026484 143.026484S597.36625 688.922479 518.501064 688.922479zM492.495784 506.891655m-52.009538 0a50.825 50.825 0 1 0 104.019075 0 50.825 50.825 0 1 0-104.019075 0Z" /></svg>