<?xml version="1.0" standalone="no"?><!DOCTYPE svg PUBLIC "-//W3C//DTD SVG 1.1//EN" "http://www.w3.org/Graphics/SVG/1.1/DTD/svg11.dtd"><svg class="icon" width="200px" height="195.98px" viewBox="0 0 1045 1024" version="1.1" xmlns="http://www.w3.org/2000/svg"><path fill="#1296db" d="M1036.648843 483.806678 574.2727 21.42941C545.700718-7.142573 499.209661-7.1437 470.636552 21.42941L8.260411 483.806678C-2.746504 494.813594-2.746504 512.660513 8.260411 523.666302 19.267326 534.674346 37.114247 534.674346 48.120035 523.666302L86.284032 485.502305 86.284032 885.258645C86.284032 925.666191 119.158215 958.540376 159.56576 958.540376L881.108936 958.540376C921.516481 958.540376 954.390666 925.666191 954.390666 885.258645L954.390666 481.268876 996.788092 523.666302C1002.292113 529.170323 1009.504164 531.921207 1016.718468 531.921207 1023.932771 531.921207 1031.14482 529.170323 1036.648843 523.666302 1047.65463 512.659385 1047.65463 494.813594 1036.648843 483.806678ZM649.989638 902.169813 390.685059 902.169813 390.685059 619.189599C390.685059 609.864779 398.271409 602.278431 407.596226 602.278431L633.078468 602.278431C642.403288 602.278431 649.989638 609.864779 649.989638 619.189599L649.989638 902.169813ZM898.020105 885.258645C898.020105 894.583463 890.433755 902.169813 881.108936 902.169813L706.360199 902.169813 706.360199 619.189599C706.360199 578.782053 673.486016 545.907869 633.078468 545.907869L407.596226 545.907869C367.188683 545.907869 334.314498 578.782053 334.314498 619.189599L334.314498 902.169813 159.565759 902.169813C150.240941 902.169813 142.654591 894.583463 142.654591 885.258645L142.654592 429.131745 510.496177 61.29016C517.089278 54.695932 527.81885 54.695932 534.411949 61.29016L898.020105 424.898315 898.020105 885.258645Z" /></svg>