<?xml version="1.0" standalone="no"?><!DOCTYPE svg PUBLIC "-//W3C//DTD SVG 1.1//EN" "http://www.w3.org/Graphics/SVG/1.1/DTD/svg11.dtd"><svg class="icon" width="200px" height="200.00px" viewBox="0 0 1024 1024" version="1.1" xmlns="http://www.w3.org/2000/svg"><path fill="#cdcdcd" d="M956.871625 908.945591c-19.810185-175.396729-140.950196-320.095295-303.488059-374.147352 69.365834-45.912679 115.125017-124.626415 115.125017-214.039841 0-141.66651-114.844631-256.509095-256.509095-256.509095-141.66651 0-256.509095 114.842585-256.509095 256.509095 0 89.412402 45.75816 168.126138 115.123994 214.039841C205.182614 589.813227 82.629417 738.730884 66.159304 918.344658l0.147356 0c-0.279363 2.778276-0.400113 5.713119-0.400113 8.763594 0 18.026562-3.412726 32.640398 14.613836 32.640398l853.16824-0.706081c18.026562 0 24.15105-13.907755 24.15105-31.934317C957.838649 920.752498 958.242855 914.365021 956.871625 908.945591zM320.98199 320.759421c0-105.496729 85.520769-191.017498 191.017498-191.017498 105.495706 0 191.017498 85.520769 191.017498 191.017498 0 105.495706-85.521792 191.017498-191.017498 191.017498C406.502759 511.776919 320.98199 426.255127 320.98199 320.759421zM488.540194 576.190975c7.728008 0.700965 15.548114 1.078565 23.459295 1.078565s15.731286-0.3776 23.459295-1.078565c179.401949 10.807137 325.589426 144.676054 355.285772 318.327022l-757.558695 0.409322C162.72257 721.078853 308.997028 587.005274 488.540194 576.190975z" /></svg>